<?xml version="1.0" encoding="UTF-8"?>
<svg width="1200pt" height="1200pt" version="1.1" viewBox="0 0 1200 1200" xmlns="http://www.w3.org/2000/svg">
 <path d="m504.88 30.574c-0.88672-4.1992 1.8008-8.3398 6-9.2266 4.2109-0.88672 8.3398 1.8008 9.2266 6 10.379 48.695 25.535 92.605 45 132.62 19.465 40.02 43.211 76.141 70.766 109.26 10.031 12.047 29.258 30 48.121 47.617 22.859 21.336 45.191 42.191 51.863 53.449 5.6289 9.4805 9.4922 21.66 9.6133 33.324 0.10938 10.523-2.7969 20.723-10.094 28.512-13.066 13.945-55.633 31.297-80.941 41.605l-2.4258 0.99609c-8.5781 3.4922-13.262 7.7031-15.684 11.977-2.293 4.0547-2.6641 8.4961-2.4492 12.422 0.27734 5.0156 2.5938 9.6133 6.793 13.871 4.8359 4.8945 12.098 9.3711 21.59 13.559 7.1523 3.1445 12.781 7.1055 17.074 11.578 6.5156 6.8047 9.8867 14.688 10.789 22.812 0.88672 7.9062-0.625 15.961-3.8867 23.363-2.8789 6.5391-7.1758 12.613-12.406 17.629-15.781 15.133-40.727 25.055-64.262 32.461 8.8086 4.332 17.148 9.3594 24.539 15.301 17.039 13.738 28.754 32.137 29.125 57.84 0.37109 26.352-21.793 32.102-44.531 38.004-15.77 4.0781-31.895 8.2695-35.23 20.27-1.1758 4.2109-0.80469 10.223 0.34766 17.184 1.2734 7.668 3.5156 16.332 5.7852 25.141 11.879 46.008 12.434 78.758 3.3242 103.77-9.3242 25.621-28.355 42.59-55.43 56.711-33.637 17.566-79.262 19.176-127.98 13.5-47.809-5.5547-98.688-18.098-143.88-29.281-44.074-10.922-80.641-8.0391-108.36 4.4297-29.797 13.402-49.477 38.062-57.203 68.578-2.4258 9.6016-3.8164 19.848-3.7422 30.156 0.14453 18.098 4.7891 36.551 16.246 52.152 11.508 15.66 30.047 28.609 58.055 35.699 15.516 3.9375 33.828 6.0703 55.32 5.9023 49.262-0.38281 104.62-6.9727 155.4-15.793 40.02-6.9609 77.051-15.254 105.98-22.957 1.5352-0.40625 2.3984-1.4141 2.207-3-1.4883-12.445-0.68359-26.461 2.9414-42 1.3789-5.9297 3.6953-10.859 6.6602-14.855 4.4766-6.0234 10.332-9.8047 16.738-11.688 6.2031-1.8242 12.863-1.8242 19.188-0.34766 5.6641 1.3203 11.148 3.8516 15.852 7.3438 6.2266 4.6445 11.172 10.957 13.945 17.93 1.9922 5.0039 2.8789 10.355 2.3633 15.707-0.51562 5.4727-2.4609 10.871-6.1445 15.828-4.2969 5.7852-10.945 10.895-20.438 14.676-7.4648 2.9648-17.785 6.4219-30.336 10.105-0.99609 0.30078-1.5977 1.3203-1.2109 2.3164 3.2656 8.6641 8.125 15.926 14.125 21.758 7.9219 7.7148 17.879 13.055 28.859 15.949 11.172 2.9414 23.352 3.3594 35.508 1.1758 29.629-5.3047 59.016-25.992 73.273-63.059 21.121-54.898 44.809-146.36 66.863-244.92 30.324-135.42 57.539-284.4 70.766-370.37 0.035156-0.23828 0.085937-0.46875 0.14453-0.70703 6.7578-34.609 19.824-56.844 33.742-66.551 6.9102-4.8242 14.137-6.8164 21.156-5.9883 7.1055 0.82812 13.691 4.4531 19.273 10.848 11.148 12.805 18.48 37.922 16.668 75-0.011718 0.23828-0.035156 0.48047-0.070312 0.70703l-25.199 283.88c14.508-6.3008 28.883-8.3047 42.012-7.0938 13.379 1.2344 25.453 5.7734 35.09 12.492 9.8867 6.8867 17.328 16.129 21.133 26.543l0.16797 0.46875c5.7461-1.5703 11.496-2.3867 17.113-2.5078 12.562-0.23828 24.48 3.0352 34.453 9.2031 10.078 6.2383 18.156 15.395 22.906 26.785 2.1836 5.2422 3.6602 10.945 4.2969 17.039 8.0039-1.2227 15.156-1.0938 21.625-0.070313 13.859 2.1953 24.059 8.3984 32.508 14.137 59.809 40.586-9.875 218.4-30.863 271.96-3.0469 7.7891-4.9805 12.695-5.0156 12.973-0.625 4.2617-4.5859 7.1992-8.832 6.5742-4.2617-0.625-7.2109-4.5703-6.5898-8.832 0.30078-1.9922 2.4727-7.5586 5.9414-16.391 19.934-50.879 86.148-219.84 36.648-253.43-7.043-4.7773-15.457-9.9258-26.23-11.641-5.2422-0.82813-11.148-0.875-17.879 0.27734-1.1289 0.19141-1.5352 0.61328-1.7031 1.7773-0.37109 2.5547-0.875 5.1602-1.5234 7.8125-1.9922 8.1016-4.6914 13.691-7.7031 17.41-3.3711 4.1641-7.2344 6.2148-11.16 6.8398-3.9961 0.63672-7.7383-0.30078-10.969-2.0508-3.3125-1.8125-6.0977-4.5469-7.8945-7.1875-0.57422-0.85156-1.0781-1.7266-1.5234-2.6406-2.4492-5.0508-2.4375-10.285-0.74219-14.977 1.5859-4.3555 4.6562-8.1836 8.5195-10.812 0.92578-0.625 1.9062-1.1992 2.9414-1.7031 4.5586-2.207 8.9141-4.043 13.078-5.5195 1.9336-0.69531 2.0742-1.1055 1.8828-2.9766-0.49219-4.5352-1.5859-8.7461-3.1797-12.59-3.4688-8.3164-9.3594-14.988-16.703-19.535-7.4648-4.6211-16.441-7.0781-25.969-6.8867-4.3203 0.085937-8.7617 0.71875-13.211 1.9453-1.4023 0.37109-1.5234 0.48047-1.5859 1.9453-0.17969 4.9805-1.1875 10.066-3.1445 15.133-5.293 13.766-13.129 20.316-20.219 22.02-5.1836 1.2461-10.02 0.10937-13.754-2.7344-3.5898-2.7344-6.0117-6.9961-6.5156-12.098-0.75781-7.4648 2.7461-16.992 13.5-25.285 3.9961-3.0859 8.1016-5.7109 12.254-7.8945 0.15625-0.085938 0.38281-0.27734 0.46875-0.51562 0.097656-0.25391 0.058593-0.53906-0.011719-0.70703-2.6758-7.332-8.1016-13.969-15.395-19.055-7.5703-5.2695-17.051-8.832-27.59-9.8047-12.637-1.1641-26.039 0.97266-40.262 8.6641-1.668 0.89844-2.0039 1.4414-2.1836 3.3828l-0.86328 9.8164c-0.50391 10.32-4.7773 16.43-9.8398 19.164-5.0273 2.7227-10.645 2.1953-15.023-0.74219-4.0312-2.6992-6.9258-7.4648-6.9844-13.488-0.070313-7.2344 4.2461-16.598 17.113-25.477 1.1992-0.82812 1.043-0.83984 1.1641-2.293l25.992-292.68v-0.058594c1.5977-32.676-4.1055-53.941-12.887-64.031-2.9414-3.3594-6.1094-5.2422-9.2891-5.6172-3.2539-0.38281-6.8281 0.70703-10.477 3.2539-10.934 7.6211-21.457 26.484-27.371 56.832v0.011719c-13.223 85.883-40.512 235.15-71.004 371.4-22.199 99.18-46.117 191.4-67.547 247.12-16.441 42.742-50.555 66.637-85.031 72.816-14.41 2.5781-28.895 2.0742-42.203-1.4297-13.512-3.5508-25.848-10.199-35.746-19.836-8.3398-8.125-14.914-18.301-18.984-30.48-29.785 8.0273-68.125 16.68-109.43 23.855-51.348 8.9141-107.53 15.59-157.96 15.984-22.945 0.16797-42.527-2.125-59.16-6.3359-31.895-8.0742-53.293-23.195-66.828-41.605-13.57-18.48-19.066-40.141-19.223-61.297-0.097656-11.746 1.4531-23.293 4.1641-33.996 8.8906-35.113 31.586-63.527 65.977-78.996 30.73-13.824 70.738-17.148 118.4-5.3516 44.699 11.062 95.016 23.473 141.94 28.934 46.008 5.3516 88.645 4.0664 119.03-11.797 23.688-12.371 40.211-26.855 48-48.254 8.0156-22.008 7.2734-51.828-3.7578-94.559-2.375-9.1914-4.7031-18.254-6.0859-26.531-1.4883-8.9883-1.8594-17.148 0.011719-23.832 5.7461-20.652 26.27-25.98 46.32-31.176 16.766-4.3555 33.098-8.5938 32.891-22.766-0.28906-20.281-9.6719-34.895-23.328-45.898-10.43-8.3984-22.824-14.605-36.312-19.871-1.3672-0.53906-1.8945-0.625-3.0234-0.34766-4.4023 1.0312-8.6406 2.4844-12.973 3.707-7.8242 2.2188-13.801 0.88672-17.543-1.8477-3.5625-2.6289-5.293-6.4219-5.1836-10.379 0.097656-3.7305 1.8711-7.4023 5.3164-10.031 4.3906-3.3594 11.902-5.0898 22.031-1.7383 2.7227 0.89844 5.4727 1.8359 8.2188 2.8203 2.5078 0.88672 3.9844 0.37109 6.5625-0.35937 25.824-7.4023 54.816-16.98 71.578-33.047 3.7812-3.6133 6.8633-7.9922 8.9414-12.695 2.207-4.9922 3.2383-10.309 2.6758-15.383-0.53906-4.8711-2.5781-9.6133-6.5273-13.727-2.9297-3.0469-6.9258-5.8086-12.145-8.1133-11.23-4.957-20.102-10.523-26.398-16.906-6.9258-7.0195-10.738-14.941-11.23-23.988-0.34766-6.3008 0.33594-13.621 4.4531-20.879 3.9844-7.0547 11.062-13.738 23.352-18.758l2.4258-0.98438c24.18-9.8516 64.824-26.41 75.457-37.777 4.2734-4.5469 5.9766-10.957 5.8906-17.785-0.085937-8.7969-3.0977-18.145-7.4766-25.523-5.5312-9.3359-27.047-29.426-49.055-49.969-19.141-17.879-38.652-36.098-49.465-49.078-28.379-34.129-52.836-71.293-72.84-112.43-19.992-41.137-35.566-86.219-46.211-136.16zm4.4023 1074.2c10.5-3.1562 19.199-6.0977 25.645-8.6641 6.5898-2.6172 11.004-5.9023 13.668-9.4922 1.9062-2.5664 2.9023-5.293 3.168-8.0156 0.26563-2.8438-0.22656-5.7461-1.332-8.5312-1.7031-4.2852-4.8125-8.2188-8.7734-11.16-2.9766-2.207-6.4688-3.8164-10.117-4.668-3.8398-0.89844-7.7539-0.92578-11.27 0.10938-3.3125 0.97266-6.3359 2.9297-8.6406 6.0234-1.7148 2.3164-3.0977 5.3281-3.9844 9.1328-2.6875 11.508-3.6133 21.973-3.0703 31.391 0.25391 4.2734 0.097657 5.2578 4.7031 3.875zm335.99-289.84c0.12109-0.35937 0.23828-0.78125 0.33594-1.2852-0.16797 0.45703-0.27734 0.875-0.33594 1.2852zm102.31 24.684c0.40625-1.0312 0.74219-2.0742 1.0312-3.1211-1.3438 0.89844-2.6875 1.8594-4.0078 2.8789-5.8203 4.4883-7.8125 8.6172-7.5352 11.449 0.070313 0.625 0.25391 1.0664 0.49219 1.2461 0.10938 0.085938 0.35938 0.097657 0.71875 0 2.7227-0.64844 6.1562-4.2617 9.3008-12.457zm76.766 45.434 0.097656-0.42188c-3.3477 1.3789-9.0469 3.2266-10.355 6.8398-0.78125 2.1484 2.2188 5.6758 5.1133 4.4883 1.8711-0.76953 3.1445-2.7617 5.1484-10.906z"/>
</svg>
